<svg version="1.1" id="Layer_1" xmlns:x="ns_extend;" xmlns:i="ns_ai;" xmlns:graph="ns_graphs;" xmlns="http://www.w3.org/2000/svg" xmlns:xlink="http://www.w3.org/1999/xlink" x="0px" y="0px" viewBox="0 0 1983.3 202.2" style="enable-background:new 0 0 1983.3 202.2;" xml:space="preserve">
 <style type="text/css">
  .st0{fill:#46BEAA;}
 </style>
 <metadata>
  <sfw xmlns="ns_sfw;">
   <slices>
   </slices>
   <sliceSourceBounds bottomLeftOrigin="true" height="202.2" width="1983.3" x="2106.5" y="393.1">
   </sliceSourceBounds>
  </sfw>
 </metadata>
 <g>
  <g>
   <path class="st0" d="M1653.2,47.3c-7.2,6.3-13.8,13-20,20.3c30,30.1,51.6,76.1,58.9,129.3h28.9c-5.8-46.9-21.9-90.2-46.8-124.8
			C1667.6,63.1,1660.6,54.8,1653.2,47.3z">
   </path>
   <path class="st0" d="M1618,87.7c-5.5,8.4-10.5,17.3-14.7,26.5c17.2,21.4,29.8,50.1,35.6,82.7h29c-5.5-35-18.1-67.3-36.9-93.4
			C1626.9,97.9,1622.5,92.6,1618,87.7z">
   </path>
   <path class="st0" d="M1585.4,197h29c-4.2-19.9-11.5-38.3-21.5-54.3C1588,159.9,1585.4,178.1,1585.4,197z">
   </path>
   <path class="st0" d="M1900.6,35.5c-3.8-2.7-7.6-5.3-11.6-7.8c-1.8,1.9-3.6,3.8-5.3,5.7c-23.1,25.7-49.3,65-63.2,120.3
			c-4.2-22.3-10.2-43.9-17.8-64.3c15.1-33.7,33.8-59.7,51-79c-4.6-1.7-9.4-3.3-14.2-4.7c-14.8,17.2-30.3,39.1-43.8,66.2
			c-9.7-22.5-21.4-43.5-35.1-62.6c-2.2-3.1-4.5-6.1-6.8-9.1c-10.6,1.6-20.9,4.1-30.8,7.3c23.9,27.6,43.4,62.6,56.7,102.6
			c-4.9,14.1-9.2,29.2-12.5,45.4c-9.4-42.9-26.3-82.2-49.8-114.9c-6-8.4-12.3-16.2-19-23.3c-8.9,4.3-17.4,9.1-25.5,14.6
			c37.7,38.2,64.5,97.1,72,164.9h29.9c2.2-23,6.3-44,11.8-63.3c5.3,20.1,9,41.3,11.1,63.3h28.9c8.5-74.2,40.1-124.1,67.3-154.3
			C1896.1,40.2,1898.4,37.8,1900.6,35.5z">
   </path>
   <path class="st0" d="M1938.1,70.7c-2.9-3.6-6-7-9.2-10.4c-30.7,31.4-56.3,77-64.3,136.6h13.9c8.2-57.9,33.4-97.3,55.1-121.4
			C1935.1,73.9,1936.6,72.3,1938.1,70.7z">
   </path>
   <path class="st0" d="M1916.7,197h13.9c6.6-35.9,21.3-62.2,35.7-80.4c-2-4.6-4.3-9.2-6.6-13.6
			C1939.7,126.3,1923.4,157.7,1916.7,197z">
   </path>
   <path class="st0" d="M1980.7,164.8c-4.8,9.7-8.7,20.4-11.4,32.2h14C1983.3,186,1982.4,175.3,1980.7,164.8z">
   </path>
  </g>
  <g>
   <polygon class="st0" points="725.4,5.8 682.4,5.8 682.4,197 800.3,197 800.3,159.2 725.4,159.2 		">
   </polygon>
   <polygon class="st0" points="1037.8,5.8 1022.3,5.8 1022.3,197 1125,197 1125,183 1037.8,183 		">
   </polygon>
   <rect x="1142.9" y="5.8" class="st0" width="15.5" height="191.2">
   </rect>
   <polygon class="st0" points="1409.6,183 1409.6,105.8 1494.1,105.8 1494.1,92.2 1409.6,92.2 1409.6,19.7 1500.4,19.7 1500.4,5.8 
			1394.1,5.8 1394.1,197 1503.6,197 1503.6,183 		">
   </polygon>
   <polygon class="st0" points="1342.2,183 1339,183 1228.3,5.8 1200.3,5.8 1200.3,197 1215.8,197 1215.8,19.7 1219.6,19.7 
			1330.3,197 1357.7,197 1357.7,5.8 1342.2,5.8 		">
   </polygon>
   <polygon class="st0" points="194,159.2 190.8,159.2 159.3,11 114.6,11 86.5,159.2 82.3,159.2 44,5.8 0,5.8 47.2,197 113,197 
			136.7,80.5 162.2,197 229.4,197 271.3,5.8 227.1,5.8 		">
   </polygon>
   <path class="st0" d="M966.9,32.5c-20.4-19.9-47.1-28.4-77.8-28.3c0,0-71,0-71,0V198h71c17.3,0,32.4-2.7,45.3-8
			c24.4-9.8,42.9-28.4,52-52c5.1-13,6.8-26.4,6.4-40.1C992.8,73.5,984.5,49.8,966.9,32.5z M944,126.8c-5.4,14.2-15.5,24.2-29.7,29.6
			c-7.2,2.7-15.3,4.1-24.4,4.1h-28.9V41.8h28.9c9.1,0,17.2,1.2,24.4,3.7c14.3,4.8,24.3,14.8,29.7,28.8
			C949.4,89.1,949.5,111.7,944,126.8z">
   </path>
   <path class="st0" d="M418.5,8.5c-24.4-11.4-64.3-11.3-88.7,0c-24.2,10.7-42.4,30.1-51.3,54.2c-5.1,13.5-6.8,27.1-6.4,41
			c0.3,36.6,22.3,73.5,57,89.3c24.6,12.2,65.8,12.2,90.4,0c34.6-15.8,56.6-52.7,57-89.3c1.1-26.2-7.8-52.9-25.9-72.5
			C441.9,21.7,431.3,14.2,418.5,8.5z M374.4,163.1c-36.4,0-57.3-28.6-57.3-61.9c0-34.5,19.6-61.9,57.3-61.9c32,0,57.3,22,57.3,61.9
			C431.7,134.6,410.4,163.1,374.4,163.1z">
   </path>
   <path class="st0" d="M641.8,107.8c7.1-10,10.1-24.7,9.6-39.4c0-14.1-3.1-26-9.4-35.5c-14.9-22-40.8-28.5-68.4-28.7
			c0,0-75.2,0-75.2,0V197h43v-59.2c0.8,0,31.6,0,32.5,0l40.5,59.2h49.8l-48.8-68.5C626.7,123.9,635.5,117,641.8,107.8z M602.7,87.3
			c-5.6,9.9-15.2,14.6-27,14.5h-34.4V41.8h34.4c6.3,0,11.7,0.1,16.2,2.6c4.5,2.5,8.1,6.1,10.7,10.7C607.9,63.9,608,78.4,602.7,87.3z
			">
   </path>
  </g>
 </g>
</svg>